<svg width="216" height="255" viewBox="0 0 216 255" fill="none" xmlns="http://www.w3.org/2000/svg">
<mask id="mask0_1198_606" style="mask-type:alpha" maskUnits="userSpaceOnUse" x="0" y="0" width="216" height="255">
<path d="M0 30C0 13.4315 13.4315 0 30 0H186C202.569 0 216 13.4315 216 30V224.118C216 240.686 202.569 254.118 186 254.118H30C13.4315 254.118 0 240.686 0 224.118V30Z" fill="#C4C4C4"/>
</mask>
<g mask="url(#mask0_1198_606)">
<rect x="-15.0879" y="-18.2647" width="241.412" height="285.882" fill="#FAA881"/>
<path d="M10.2042 182.959C-59.3613 200.133 -128.706 161.227 -144.79 96.0761C-160.875 30.9255 -117.604 -35.7835 -48.0386 -52.9578L203.864 -115.147C236.302 16.2477 149.335 148.611 10.2042 182.959Z" fill="#F26C74"/>
<path d="M236.804 229.79C277.359 288.863 265.342 367.463 210.018 405.445C154.694 443.426 77.0255 426.397 36.4705 367.324L-110.382 153.416C1.19416 76.8162 155.694 111.644 236.804 229.79Z" fill="#7675FD"/>
</g>
<path d="M30.602 218.373H50.682V212.813H39.882C44.522 209.253 50.242 204.133 50.242 197.733C50.242 192.813 47.282 188.933 40.642 188.933C35.322 188.933 30.722 191.973 30.522 199.053H37.122C37.122 196.293 38.322 194.693 40.362 194.693C42.442 194.693 43.402 196.053 43.402 198.173C43.402 203.093 36.802 208.173 30.602 213.293V218.373ZM54.7336 210.213C55.0536 214.693 58.1336 218.893 64.4936 218.893C72.3336 218.893 74.6536 213.373 74.6536 203.413C74.6536 194.533 72.3336 188.893 64.0136 188.893C57.8136 188.893 53.9736 192.733 53.9736 198.653C53.9736 204.853 57.8136 207.973 62.8136 207.973C65.2936 207.973 67.4536 207.013 68.6136 205.373C68.6136 210.933 67.6136 213.373 64.7336 213.373C62.6136 213.373 61.4536 212.253 61.0536 210.213H54.7336ZM64.3736 202.573C61.6936 202.573 60.4136 200.933 60.4136 198.733C60.4136 196.293 61.8536 194.773 64.2136 194.773C66.5336 194.773 68.0536 196.173 68.0536 198.773C68.0536 201.133 66.6136 202.573 64.3736 202.573ZM90.0195 218.773H97.1395V189.573H86.0595V195.933H90.0195V218.773ZM101.579 218.373H121.659V212.813H110.859C115.499 209.253 121.219 204.133 121.219 197.733C121.219 192.813 118.259 188.933 111.619 188.933C106.299 188.933 101.699 191.973 101.499 199.053H108.099C108.099 196.293 109.299 194.693 111.339 194.693C113.419 194.693 114.379 196.053 114.379 198.173C114.379 203.093 107.779 208.173 101.579 213.293V218.373ZM129.47 203.093C126.67 204.413 125.03 206.893 125.03 210.213C125.03 216.053 129.87 219.333 135.83 219.333C141.79 219.333 146.63 216.053 146.63 210.213C146.63 206.893 144.99 204.453 142.15 203.093C144.35 201.933 145.91 199.813 145.91 196.813C145.91 192.653 142.71 188.973 135.83 188.973C128.95 188.973 125.71 192.653 125.71 196.813C125.71 199.893 127.23 201.893 129.47 203.093ZM135.83 201.253C133.87 201.253 132.39 200.013 132.39 197.893C132.39 195.653 133.79 194.413 135.83 194.413C137.87 194.413 139.27 195.653 139.27 197.853C139.27 199.973 137.79 201.253 135.83 201.253ZM135.83 206.053C138.27 206.053 139.95 207.493 139.95 209.893C139.95 212.053 138.43 213.733 135.83 213.733C133.19 213.733 131.63 212.093 131.63 209.893C131.63 207.413 133.39 206.053 135.83 206.053Z" fill="white"/>
<path d="M29.972 179.361H32.537V173.031L34.907 179.361H36.977L39.332 173.046V179.361H41.897V168.831H38.882L35.957 176.121L33.002 168.831H29.972V179.361ZM47.4315 172.926C48.2865 172.926 49.0065 173.451 49.0065 174.366H45.7965C45.9465 173.436 46.5915 172.926 47.4315 172.926ZM51.4365 176.586H48.7065C48.4965 177.036 48.0915 177.396 47.3715 177.396C46.5465 177.396 45.8715 176.886 45.7815 175.791H51.5865C51.6165 175.536 51.6315 175.281 51.6315 175.041C51.6315 172.491 49.9065 170.871 47.4615 170.871C44.9715 170.871 43.2315 172.521 43.2315 175.176C43.2315 177.831 45.0015 179.481 47.4615 179.481C49.5465 179.481 51.0315 178.221 51.4365 176.586ZM64.5197 179.361H67.0697V174.471C67.0697 172.221 65.7347 170.901 63.6647 170.901C62.4497 170.901 61.3997 171.576 60.8447 172.461C60.2747 171.456 59.2547 170.901 57.9947 170.901C56.8997 170.901 56.0447 171.366 55.5497 172.041V170.991H52.9847V179.361H55.5497V174.816C55.5497 173.721 56.1797 173.121 57.1547 173.121C58.1297 173.121 58.7597 173.721 58.7597 174.816V179.361H61.3097V174.816C61.3097 173.721 61.9397 173.121 62.9147 173.121C63.8897 173.121 64.5197 173.721 64.5197 174.816V179.361ZM71.4286 172.176V168.261H68.8636V179.361H71.4286V178.191C71.8936 178.926 72.7786 179.481 74.0086 179.481C76.0636 179.481 77.6986 177.801 77.6986 175.161C77.6986 172.521 76.0786 170.871 74.0086 170.871C72.8086 170.871 71.8936 171.426 71.4286 172.176ZM75.0886 175.161C75.0886 176.496 74.2186 177.246 73.2436 177.246C72.2836 177.246 71.4136 176.511 71.4136 175.176C71.4136 173.841 72.2836 173.106 73.2436 173.106C74.2186 173.106 75.0886 173.826 75.0886 175.161ZM82.7343 172.926C83.5893 172.926 84.3093 173.451 84.3093 174.366H81.0993C81.2493 173.436 81.8943 172.926 82.7343 172.926ZM86.7393 176.586H84.0093C83.7993 177.036 83.3943 177.396 82.6743 177.396C81.8493 177.396 81.1743 176.886 81.0843 175.791H86.8893C86.9193 175.536 86.9343 175.281 86.9343 175.041C86.9343 172.491 85.2093 170.871 82.7643 170.871C80.2743 170.871 78.5343 172.521 78.5343 175.176C78.5343 177.831 80.3043 179.481 82.7643 179.481C84.8493 179.481 86.3343 178.221 86.7393 176.586ZM90.8524 175.476C90.8524 174.036 91.5574 173.616 92.7724 173.616H93.4774V170.901C92.3524 170.901 91.4374 171.501 90.8524 172.386V170.991H88.2874V179.361H90.8524V175.476ZM101.498 176.931C101.453 173.811 96.9234 174.756 96.9234 173.421C96.9234 173.016 97.2534 172.776 97.8534 172.776C98.5734 172.776 99.0084 173.151 99.0834 173.721H101.453C101.288 172.071 100.088 170.871 97.9284 170.871C95.7384 170.871 94.5234 172.041 94.5234 173.466C94.5234 176.541 99.0834 175.566 99.0834 176.916C99.0834 177.291 98.7384 177.591 98.0784 177.591C97.3734 177.591 96.8484 177.201 96.7884 176.616H94.2534C94.3734 178.236 95.8734 179.481 98.1084 179.481C100.208 179.481 101.498 178.386 101.498 176.931Z" fill="white"/>
<path d="M60.353 52.5841C58.434 44.1353 56.4526 35.395 44.1672 35.395C35.8275 35.395 29.042 42.2352 29.042 50.642V73.5126H51.7298V67.795H53.6204C55.7058 67.795 57.4017 66.0854 57.4017 63.9832V58.2655H61.7143C61.7143 58.2655 60.5988 53.6762 60.353 52.5841ZM44.1672 58.2427C44.1672 58.2427 36.6046 52.7004 36.6046 48.5913C36.6046 44.6899 42.4864 42.9937 44.1672 48.1186C45.848 42.9956 51.7298 44.6899 51.7298 48.5913C51.7298 52.7004 44.1672 58.2427 44.1672 58.2427Z" fill="white"/>
</svg>
